<?xml version="1.0" encoding="UTF-8" standalone="no"?>
<!-- Created with Inkscape (http://www.inkscape.org/) -->

<svg
   width="512"
   height="512"
   viewBox="0 0 135.46666 135.46667"
   version="1.1"
   id="svg16022"
   sodipodi:docname="fast.svg"
   inkscape:version="1.1 (ce6663b3b7, 2021-05-25)"
   xmlns:inkscape="http://www.inkscape.org/namespaces/inkscape"
   xmlns:sodipodi="http://sodipodi.sourceforge.net/DTD/sodipodi-0.dtd"
   xmlns="http://www.w3.org/2000/svg"
   xmlns:svg="http://www.w3.org/2000/svg">
  <sodipodi:namedview
     id="namedview16024"
     pagecolor="#505050"
     bordercolor="#eeeeee"
     borderopacity="1"
     inkscape:pageshadow="0"
     inkscape:pageopacity="0"
     inkscape:pagecheckerboard="0"
     inkscape:document-units="mm"
     showgrid="false"
     units="px"
     inkscape:zoom="0.64497755"
     inkscape:cx="220.1627"
     inkscape:cy="561.25984"
     inkscape:window-width="1920"
     inkscape:window-height="975"
     inkscape:window-x="0"
     inkscape:window-y="27"
     inkscape:window-maximized="1"
     inkscape:current-layer="layer1" />
  <defs
     id="defs16019" />
  <g
     inkscape:label="Layer 1"
     inkscape:groupmode="layer"
     id="layer1">
    <g
       transform="matrix(0.01382313,0,0,-0.0142834,-1.382313,69.303782)"
       id="g16080">
      <g
         transform="matrix(0.99999881,0,0,0.96777472,0.01301733,59.521393)"
         id="g16805"
         style="fill:#5294c7;fill-opacity:1">
        <path
           d="m 4665.2,4136.7 c -37.4,-3.9 -153.5,-17.7 -255.9,-29.5 -726.3,-82.7 -1555,-389.7 -2165.2,-805 -362.2,-246 -799.1,-645.6 -1055,-964.5 C 651.7,1668.4 311.2,912.5 155.7,44.5 96.6,-290.1 80.9,-1034.1 126.2,-1382.6 c 74.8,-566.9 250,-1149.5 488.1,-1621.9 159.4,-314.9 519.6,-852.3 604.3,-895.6 27.5,-15.7 1184.9,-21.7 3793,-21.7 h 3753.6 l 74.8,78.7 c 94.5,98.4 379.9,527.5 498,748 265.7,498 460.6,1122 533.4,1712.5 33.5,283.5 39.4,858.2 7.9,1137.7 -63,582.6 -220.4,1118 -490.1,1667.2 -250,505.9 -515.7,879.9 -915.3,1281.4 -755.9,757.8 -1718.4,1236.1 -2808.8,1395.6 -196.9,29.5 -860.2,53.1 -999.9,37.4 z M 5669,3784.3 c 498,-74.8 923.2,-210.6 1377.8,-435 490.1,-244.1 873.9,-525.5 1265.6,-933 708.6,-734.2 1131.8,-1608.1 1263.7,-2604.1 39.4,-301.2 39.4,-866.1 0,-1169.2 -98.4,-753.9 -377.9,-1460.5 -832.6,-2096.3 l -108.3,-153.5 H 4999.8 1362.3 l -122,175.2 c -437,618 -722.4,1340.4 -816.9,2074.6 -39.4,301.2 -39.4,868.1 0,1169.2 196.8,1511.7 1155.4,2854.1 2525.4,3537.1 541.3,269.7 1015.7,401.5 1706.6,472.4 161.3,15.8 814.8,-7.8 1013.6,-37.4 z"
           id="path16791"
           style="fill:#5294c7;fill-opacity:1;paint-order:stroke fill markers;stroke:#000000;stroke-opacity:1;stroke-width:1.01283479;stroke-miterlimit:4;stroke-dasharray:none" />
        <path
           d="m 4883.7,3290.3 c -39.4,-49.2 -41.3,-76.8 -41.3,-472.4 0,-230.3 5.9,-433 11.8,-450.7 7.9,-15.7 39.4,-45.3 70.8,-61 47.2,-23.6 70.8,-25.6 126,-7.9 37.4,11.8 76.7,39.4 86.6,59.1 11.8,21.7 19.7,216.5 19.7,458.6 0,397.6 -2,425.2 -41.3,474.4 -31.5,39.4 -57.1,51.2 -116.1,51.2 -59,0 -84.8,-11.9 -116.2,-51.3 z"
           id="path16793"
           style="fill:#5294c7;fill-opacity:1;paint-order:stroke fill markers;stroke:#000000;stroke-opacity:1;stroke-width:1.01283479;stroke-miterlimit:4;stroke-dasharray:none" />
        <path
           d="m 2023.7,2123.1 c -61,-49.2 -84.6,-124 -53.1,-185 11.8,-23.6 151.6,-173.2 309,-332.7 265.7,-267.7 295.3,-291.3 360.2,-291.3 88.6,0 161.4,70.9 161.4,159.4 0,51.2 -41.3,102.4 -303.1,364.2 -330.7,330.6 -380,360.2 -474.4,285.4 z"
           id="path16795"
           style="fill:#5294c7;fill-opacity:1;paint-order:stroke fill markers;stroke:#000000;stroke-opacity:1;stroke-width:1.01283479;stroke-miterlimit:4;stroke-dasharray:none" />
        <path
           d="m 7824.3,2140.8 c -21.6,-7.9 -171.2,-149.6 -332.7,-311 -251.9,-253.9 -293.3,-305.1 -293.3,-356.3 0,-88.6 72.8,-159.4 161.4,-159.4 65,0 94.5,23.6 360.2,291.3 157.5,159.4 297.2,309 309,332.7 29.5,59.1 7.9,135.8 -51.2,183.1 -53,41.2 -90.4,47.1 -153.4,19.6 z"
           id="path16797"
           style="fill:#5294c7;fill-opacity:1;paint-order:stroke fill markers;stroke:#000000;stroke-opacity:1;stroke-width:1.01283479;stroke-miterlimit:4;stroke-dasharray:none" />
        <path
           d="M 7601.9,1150.7 C 7414.9,1072 7098,837.7 5539.1,-382.6 l -395.6,-311 h -139.7 c -187,0 -320.8,-29.5 -486.2,-108.3 -194.9,-94.5 -354.3,-230.3 -476.3,-407.5 -137.9,-204.6 -183.2,-354.2 -173.3,-580.6 21.7,-503.9 332.7,-919.2 807,-1080.6 389.7,-129.9 793.2,-29.5 1092.4,269.7 277.5,275.6 417.3,722.4 332.7,1045.2 l -23.6,84.6 600.3,750 C 7605.9,440.1 7883.4,820 7907,965.7 c 17.7,114.2 -66.9,232.3 -165.4,230.3 -19.6,0 -82.6,-21.7 -139.7,-45.3 z M 7220.1,475.6 c -35.4,-49.2 -377.9,-482.2 -759.8,-960.5 -381.9,-476.3 -702.7,-887.7 -712.5,-909.4 -11.8,-29.5 -3.9,-82.7 23.6,-167.3 29.5,-96.5 37.4,-165.3 31.5,-293.3 -17.7,-377.9 -259.8,-663.3 -627.9,-740.1 -277.5,-59 -564.9,23.6 -757.8,218.5 -124,124 -179.1,226.4 -218.5,411.4 -61,293.3 17.7,551.1 230.3,746 171.3,159.5 285.4,198.8 570.8,200.8 126,2 240.1,9.8 255.9,19.7 15.7,9.8 387.8,297.2 826.7,639.7 854.3,667.3 1186.9,925.1 1196.7,925.1 4,-0.1 -23.6,-41.4 -59,-90.6 z"
           id="path16799"
           style="fill:#5294c7;fill-opacity:1;paint-order:stroke fill markers;stroke:#000000;stroke-opacity:1;stroke-width:1.01283479;stroke-miterlimit:4;stroke-dasharray:none" />
        <path
           d="m 1230.4,-727.1 c -350.4,-5.9 -375.9,-9.8 -417.3,-49.2 -63,-59.1 -61,-159.4 3.9,-222.4 47.3,-49.2 47.3,-49.2 470.4,-49.2 232.3,0 437,5.9 454.7,11.8 37.4,15.7 88.6,108.3 88.6,163.4 0,63 -80.7,137.8 -157.5,145.6 -37.3,2 -236.1,3.9 -442.8,0 z"
           id="path16801"
           style="fill:#5294c7;fill-opacity:1;paint-order:stroke fill markers;stroke:#000000;stroke-opacity:1;stroke-width:1.01283479;stroke-miterlimit:4;stroke-dasharray:none" />
        <path
           d="m 8292.8,-729.1 c -59,-7.9 -124,-94.5 -124,-165.4 0,-33.4 19.7,-76.7 49.2,-104.3 l 47.2,-49.2 h 435 435 l 47.2,49.2 c 65,63 66.9,163.4 3.9,222.4 -41.3,39.4 -66.9,41.3 -446.8,47.2 -222.3,4.1 -423.1,4.1 -446.7,0.1 z"
           id="path16803"
           style="fill:#5294c7;fill-opacity:1;paint-order:stroke fill markers;stroke:#000000;stroke-opacity:1;stroke-width:1.01283479;stroke-miterlimit:4;stroke-dasharray:none" />
      </g>
    </g>
  </g>
</svg>
