<?xml version="1.0" encoding="UTF-8" standalone="no"?>
<!-- Created with Inkscape (http://www.inkscape.org/) -->

<svg
   width="512"
   height="512"
   viewBox="0 0 135.46666 135.46667"
   version="1.1"
   id="svg5"
   sodipodi:docname="json_and_color.svg"
   inkscape:version="1.1 (ce6663b3b7, 2021-05-25)"
   xmlns:inkscape="http://www.inkscape.org/namespaces/inkscape"
   xmlns:sodipodi="http://sodipodi.sourceforge.net/DTD/sodipodi-0.dtd"
   xmlns:xlink="http://www.w3.org/1999/xlink"
   xmlns="http://www.w3.org/2000/svg"
   xmlns:svg="http://www.w3.org/2000/svg">
  <sodipodi:namedview
     id="namedview7"
     pagecolor="#505050"
     bordercolor="#eeeeee"
     borderopacity="1"
     inkscape:pageshadow="0"
     inkscape:pageopacity="0"
     inkscape:pagecheckerboard="0"
     inkscape:document-units="mm"
     showgrid="false"
     units="px"
     inkscape:zoom="0.64497755"
     inkscape:cx="163.57158"
     inkscape:cy="561.25985"
     inkscape:window-width="1920"
     inkscape:window-height="975"
     inkscape:window-x="0"
     inkscape:window-y="27"
     inkscape:window-maximized="1"
     inkscape:current-layer="layer1" />
  <defs
     id="defs2">
    <linearGradient
       id="linearGradient19311">
      <stop
         id="stop19307"
         style="stop-color:#5294c7;stop-opacity:1"
         offset="0" />
      <stop
         id="stop19309"
         style="stop-color:#ffffff;stop-opacity:1"
         offset="1" />
    </linearGradient>
    <linearGradient
       id="linearGradient17629">
      <stop
         id="stop17625"
         style="stop-color:#5294c7;stop-opacity:1"
         offset="0" />
      <stop
         id="stop17627"
         style="stop-color:#ffffff;stop-opacity:1"
         offset="1" />
    </linearGradient>
    <linearGradient
       id="linearGradient8385">
      <stop
         id="stop8387"
         style="stop-color:#5294c7;stop-opacity:1"
         offset="0" />
      <stop
         id="stop8389"
         style="stop-color:#ffffff;stop-opacity:1"
         offset="1" />
    </linearGradient>
    <linearGradient
       x1="-553.26971"
       y1="525.90778"
       x2="-666.11639"
       y2="413.0452"
       id="linearGradient3002"
       xlink:href="#linearGradient19311"
       gradientUnits="userSpaceOnUse"
       gradientTransform="matrix(0.99884,0,0,0.998699,689.00774,-388.84375)" />
    <linearGradient
       x1="-666.11664"
       y1="413.04492"
       x2="-553.2699"
       y2="525.90759"
       id="linearGradient3005"
       xlink:href="#linearGradient17629"
       gradientUnits="userSpaceOnUse"
       gradientTransform="matrix(0.99884,0,0,0.998699,688.11225,-390.33692)" />
  </defs>
  <g
     inkscape:label="Layer 1"
     inkscape:groupmode="layer"
     id="layer1">
    <g
       id="g102"
       transform="matrix(0.42097719,0,0,0.42097722,0.37698214,0.58685947)">
      <path
         d="m 78.969107,117.6064 c 35.397683,48.25534 70.039573,-13.46852 69.988683,-50.586751 -0.0602,-43.88605 -44.54091,-68.4136899 -70.017683,-68.4136899 -40.89242,0 -79.83560002,33.7960799 -79.83560002,80.0358899 0,51.396001 44.64038002,79.864971 79.83560002,79.864971 -7.96447,-1.14675 -34.5062,-6.83395 -34.86292,-67.966771 -0.23987,-41.3466 13.48757,-57.86551 34.80527,-50.59905 0.47743,0.17707 23.513923,9.26451 23.513923,38.95053 0,29.559921 -23.427273,38.714871 -23.427273,38.714871 z"
         id="path7508"
         style="color:#000000;display:inline;overflow:visible;visibility:visible;fill:url(#linearGradient3005);fill-opacity:1;fill-rule:evenodd;stroke:none;stroke-width:0.5;marker:none" />
      <path
         d="M 79.82327,41.40081 C 56.43322,33.33893 27.78025,52.61662 27.78025,91.22962 c 0,63.04798 46.72055,68.77037 52.38416,68.77037 C 121.05683,159.99999 160,126.20391 160,79.9641 160,28.5681 115.35962,0.09913 80.16441,0.09913 c 9.74811,-1.35 52.54087,10.54991 52.54087,69.0368 0,38.14117 -31.95286,58.90496 -52.73547,50.03344 -0.47743,-0.17707 -23.51392,-9.26451 -23.51392,-38.95053 0,-29.55992 23.36738,-38.81803 23.36738,-38.81803 z"
         id="path7510"
         style="color:#000000;display:inline;overflow:visible;visibility:visible;fill:url(#linearGradient3002);fill-opacity:1.0;fill-rule:evenodd;stroke:none;stroke-width:0.5;marker:none" />
    </g>
    <path
       d="m 99.714698,67.751351 c -8.417119,0.536541 -15.880955,3.833446 -21.805413,9.629509 -5.380736,5.259515 -8.80548,11.966291 -9.857625,19.322548 -0.268327,1.842604 -0.324819,2.710947 -0.317762,4.927732 0,3.12745 0.268338,5.3654 0.981533,8.22461 0.628461,2.47797 1.2781,4.24997 2.471463,6.67147 1.306347,2.65446 2.570327,4.60297 4.49101,6.91856 0.83324,1.00955 3.255275,3.39574 4.349785,4.29233 5.020606,4.10171 10.867396,6.63619 17.22966,7.46216 2.203132,0.28946 4.872321,0.35299 5.634951,0.1412 1.28517,-0.36006 2.31611,-1.00954 3.06461,-1.94143 0.91798,-1.13661 1.34872,-2.47093 1.24987,-3.91817 -0.0847,-1.39077 -0.48017,-2.29442 -1.54643,-3.56518 -0.47312,-0.56479 -0.96741,-1.5249 -1.15101,-2.25912 -0.17653,-0.67774 -0.17653,-2.01203 0,-2.6827 0.44487,-1.71553 1.5888,-3.08513 3.17054,-3.81227 1.05214,-0.48009 0.99566,-0.47301 6.26341,-0.52949 2.61976,-0.0282 4.84408,-0.0705 4.94293,-0.0917 0.099,-0.0283 0.4943,-0.0918 0.88267,-0.15532 3.78487,-0.59302 7.41441,-2.47798 10.21775,-5.30892 2.28787,-2.30856 3.80606,-4.85713 4.74523,-7.99871 0.76261,-2.54151 0.93916,-5.718407 0.49429,-8.930592 -1.31342,-9.424781 -7.5274,-17.734118 -16.79892,-22.450037 -4.1097,-2.089685 -8.36769,-3.32514 -13.16939,-3.812266 -1.03803,-0.105896 -4.61812,-0.190616 -5.543152,-0.134141 z m -5.93153,7.72337 c 1.920688,0.607143 3.347077,2.089698 3.862555,4.009948 0.197715,0.769516 0.197715,2.026149 -0.0071,2.802724 -0.522541,1.983794 -2.083095,3.543996 -4.067332,4.066419 -0.804994,0.211796 -1.977174,0.211796 -2.782163,0 -1.95599,-0.515362 -3.417691,-1.913186 -4.032027,-3.854627 -0.197717,-0.635376 -0.268329,-1.884953 -0.141225,-2.597988 0.381311,-2.209707 2.125466,-4.024065 4.335659,-4.532368 0.663771,-0.155313 2.203142,-0.09885 2.831598,0.105895 z m 18.380672,-0.105895 c 2.22431,0.46595 4.00377,2.294426 4.39214,4.532368 0.12711,0.713034 0.0565,1.962612 -0.14123,2.597988 -0.61433,1.941441 -2.07602,3.339265 -4.03202,3.854627 -0.80498,0.211797 -1.97718,0.211797 -2.78216,0 -1.98425,-0.522423 -3.54479,-2.082624 -4.06733,-4.06642 -0.21184,-0.790693 -0.21184,-2.04027 0,-2.816843 0.55784,-2.096745 2.28082,-3.720492 4.39215,-4.129962 0.50136,-0.09884 1.70884,-0.08472 2.23845,0.02823 z m -30.420249,15.00904 c 1.249862,0.197681 2.210199,0.705981 3.142297,1.644936 0.939157,0.945996 1.412268,1.920253 1.588794,3.27572 0.225968,1.729647 -0.43074,3.501646 -1.744149,4.751208 -0.69201,0.66363 -1.419324,1.06604 -2.400851,1.34843 -0.720256,0.20473 -2.146645,0.21884 -2.845718,0.0283 -2.5562,-0.69893 -4.236802,-2.880388 -4.236802,-5.471325 0,-1.164862 0.296574,-2.195581 0.896791,-3.09923 1.235734,-1.856725 3.431806,-2.830956 5.599638,-2.47798 z m 42.071449,0.13414 c 2.45734,0.691862 4.1097,2.880392 4.1097,5.436025 0,1.164848 -0.2754,2.096743 -0.88973,3.056855 -1.76532,2.732134 -5.43724,3.409884 -8.0923,1.482564 -0.86148,-0.621276 -1.6806,-1.764939 -2.01954,-2.816843 -0.62139,-1.913195 -0.14121,-4.073487 1.23574,-5.541908 0.86855,-0.917769 1.91362,-1.503729 3.09286,-1.729647 0.67789,-0.134141 1.89951,-0.07768 2.56327,0.112954 z"
       id="path106"
       style="fill:#5294c7;stroke:#b8b8b8;stroke-width:0.007;stroke-opacity:1;stroke-miterlimit:4;stroke-dasharray:none;fill-opacity:1" />
  </g>
</svg>
