<?xml version="1.0" encoding="UTF-8" standalone="no"?>
<!-- Created with Inkscape (http://www.inkscape.org/) -->

<svg
   width="512"
   height="512"
   viewBox="0 0 135.46666 135.46667"
   version="1.1"
   id="svg14373"
   inkscape:version="1.1 (ce6663b3b7, 2021-05-25)"
   sodipodi:docname="wrench.svg"
   xmlns:inkscape="http://www.inkscape.org/namespaces/inkscape"
   xmlns:sodipodi="http://sodipodi.sourceforge.net/DTD/sodipodi-0.dtd"
   xmlns="http://www.w3.org/2000/svg"
   xmlns:svg="http://www.w3.org/2000/svg">
  <sodipodi:namedview
     id="namedview14375"
     pagecolor="#505050"
     bordercolor="#eeeeee"
     borderopacity="1"
     inkscape:pageshadow="0"
     inkscape:pageopacity="0"
     inkscape:pagecheckerboard="0"
     inkscape:document-units="mm"
     showgrid="false"
     units="px"
     inkscape:zoom="0.64497755"
     inkscape:cx="220.1627"
     inkscape:cy="561.25984"
     inkscape:window-width="1920"
     inkscape:window-height="975"
     inkscape:window-x="0"
     inkscape:window-y="27"
     inkscape:window-maximized="1"
     inkscape:current-layer="layer1" />
  <defs
     id="defs14370" />
  <g
     inkscape:label="Layer 1"
     inkscape:groupmode="layer"
     id="layer1">
    <path
       d="m 130.45656,108.64929 c -0.3594,-0.35941 -0.73263,-0.70499 -1.11968,-1.02293 L 70.435802,48.724884 C 75.011315,35.86913 72.14989,20.967513 61.865353,10.669086 50.184667,-0.99785827 32.532314,-3.0990133 18.709014,4.3794417 l 4.06405,4.050254 3.773761,3.7876093 L 38.794269,24.464831 36.54107,36.947354 24.058631,39.200567 11.811188,26.953041 8.0236037,23.179255 3.9733767,19.129002 c -7.478405,13.809569 -5.377264,31.462042 6.3034243,43.142803 10.284536,10.284604 25.199876,13.146048 38.055544,8.570505 l 58.901075,58.90148 c 0.31794,0.38705 0.66352,0.76028 1.02293,1.11969 6.13754,6.13759 16.0765,6.13759 22.21404,0 6.12372,-6.13759 6.12372,-16.07661 -0.0139,-22.21419 z m -7.36781,14.84632 c -1.86614,1.86616 -4.76904,2.04587 -6.84253,0.53912 l -58.334329,-58.334722 -6.068429,-6.082295 -1.35468,-1.354689 -0.0553,-0.0553 C 40.314826,64.912077 26.54682,63.806204 17.644616,54.890113 13.497625,50.743101 11.037078,45.545502 10.276796,40.154381 L 20.547513,50.425164 45.512392,45.918736 50.018788,20.95369 39.748076,10.682909 c 5.391087,0.760286 10.588648,3.220851 14.73564,7.367868 8.916026,8.916088 10.021892,22.684187 3.317592,32.789088 l 1.409977,1.409981 6.068426,6.06847 58.334329,58.334724 c 1.50673,2.05968 1.32703,4.97642 -0.52529,6.84257 z"
       id="path14423"
       style="stroke-width:0.138233;fill-opacity:1;fill:#5294c7" />
  </g>
</svg>
